<?xml version="1.0" standalone="no"?>
<!DOCTYPE svg PUBLIC "-//W3C//DTD SVG 20010904//EN"
 "http://www.w3.org/TR/2001/REC-SVG-20010904/DTD/svg10.dtd">
<svg version="1.0" xmlns="http://www.w3.org/2000/svg"
 width="365.000000pt" height="138.000000pt" viewBox="0 0 365.000000 138.000000"
 preserveAspectRatio="xMidYMid meet">

<g transform="translate(0.000000,138.000000) scale(0.100000,-0.100000)"
fill="#000000" stroke="none">
<path d="M474 1218 c-5 -7 -9 -45 -10 -84 0 -47 -6 -80 -16 -95 -29 -46 -41
-100 -35 -168 12 -136 67 -202 198 -237 35 -10 65 -18 67 -20 2 -1 -7 -18 -19
-38 -22 -38 -51 -51 -99 -44 -17 3 -30 0 -31 -6 0 -6 -4 -1 -10 12 -5 14 -13
20 -20 16 -7 -4 -9 -3 -6 3 8 13 -22 55 -34 47 -5 -3 -8 0 -7 8 2 7 -3 12 -9
10 -7 -1 -13 2 -13 8 0 5 -11 10 -25 10 -32 0 -32 -17 0 -32 14 -6 39 -33 55
-60 34 -55 75 -78 140 -78 l40 0 0 -70 c0 -63 -2 -71 -25 -86 -32 -21 -22 -38
18 -30 58 12 67 29 67 130 0 50 5 98 10 106 7 10 10 -26 10 -111 0 -100 -3
-129 -15 -139 -8 -7 -15 -16 -15 -21 0 -15 44 -10 68 7 21 14 22 22 22 149 0
78 4 136 10 140 6 4 10 -40 10 -125 0 -126 1 -132 25 -155 13 -14 33 -25 45
-25 21 0 26 10 11 25 -12 13 -23 255 -11 255 13 0 23 -83 15 -119 -4 -17 -1
-47 5 -66 9 -28 19 -37 51 -46 51 -16 58 -7 25 31 -25 30 -26 38 -26 139 0 93
-3 112 -20 134 l-20 25 48 7 c63 9 101 26 145 64 51 45 70 109 65 220 -3 75
-7 93 -30 129 -21 31 -28 54 -28 91 0 27 -5 62 -10 76 -9 24 -14 26 -43 20
-17 -4 -50 -17 -72 -28 -35 -17 -60 -20 -190 -21 -135 -1 -155 1 -195 20 -63
30 -106 38 -116 22z m546 -303 c80 -73 63 -201 -35 -250 -35 -17 -60 -20 -185
-20 -138 0 -148 1 -201 28 -66 32 -89 69 -89 140 0 49 33 101 74 117 12 4 109
7 217 6 182 -1 199 -3 219 -21z"/>
<path d="M635 841 c5 -15 2 -21 -9 -21 -23 0 -20 -47 4 -60 28 -15 57 30 44
68 -12 33 -50 45 -39 13z"/>
<path d="M925 850 c-4 -6 -1 -9 6 -8 6 2 14 -3 17 -11 3 -10 -1 -13 -17 -8
-16 4 -21 1 -21 -16 0 -32 29 -58 51 -46 22 11 26 68 7 87 -15 15 -35 16 -43
2z"/>
<path d="M780 730 c0 -5 5 -10 10 -10 6 0 10 5 10 10 0 6 -4 10 -10 10 -5 0
-10 -4 -10 -10z"/>
<path d="M1582 939 c-83 -41 -117 -129 -110 -283 3 -83 7 -100 33 -142 41 -65
88 -88 191 -92 64 -3 91 0 125 15 l44 20 -3 136 -3 137 -90 0 -89 0 0 -50 0
-50 35 0 35 0 0 -55 0 -55 -40 0 c-86 0 -130 56 -130 163 0 139 65 196 193
170 26 -5 50 -7 52 -3 2 4 7 25 11 47 6 39 5 41 -26 52 -57 19 -179 14 -228
-10z"/>
<path d="M2360 685 l0 -256 58 3 57 3 3 108 3 107 74 0 75 0 0 -110 0 -110 55
0 55 0 0 255 0 255 -55 0 -55 0 0 -95 0 -95 -75 0 -75 0 0 95 0 95 -60 0 -60
0 0 -255z"/>
<path d="M3160 685 l0 -255 39 0 c22 0 43 4 46 10 4 6 17 4 35 -5 38 -20 129
-19 158 1 42 29 56 72 57 169 0 104 -16 145 -67 171 -31 16 -101 16 -140 -1
-16 -6 -18 1 -18 79 l0 86 -55 0 -55 0 0 -255z m205 1 c26 -19 33 -117 11
-151 -16 -25 -54 -33 -90 -19 -25 9 -23 159 2 173 24 14 55 13 77 -3z"/>
<path d="M1936 915 c-9 -9 -16 -29 -16 -44 0 -62 80 -82 110 -28 13 24 13 30
0 55 -19 33 -69 42 -94 17z"/>
<path d="M2128 828 c-3 -46 -6 -53 -28 -58 -20 -5 -26 -13 -28 -42 -3 -33 -1
-37 25 -40 l28 -3 5 -107 c4 -95 8 -110 28 -130 19 -19 33 -23 90 -23 l67 0 3
42 3 42 -38 3 -38 3 -3 88 -3 87 41 0 41 0 -3 43 c-3 41 -4 42 -40 45 l-38 3
0 50 0 49 -54 0 -55 0 -3 -52z"/>
<path d="M1920 605 l0 -175 55 0 55 0 0 175 0 175 -55 0 -55 0 0 -175z"/>
<path d="M2790 629 l0 -151 29 -29 c26 -25 37 -29 86 -29 30 0 71 6 90 14 21
9 37 11 40 5 4 -5 22 -9 41 -9 l34 0 0 175 0 175 -55 0 -55 0 0 -130 c0 -128
0 -130 -24 -136 -13 -3 -35 -4 -47 -2 -24 3 -24 5 -27 136 l-3 132 -54 0 -55
0 0 -151z"/>
</g>
</svg>
