<svg width="70" height="71" viewBox="0 0 70 71" fill="none" xmlns="http://www.w3.org/2000/svg">
<path d="M69.5738 26.0387C69.7963 26.5502 69.5487 27.1489 69.0322 27.3597C39.7268 39.3183 18.2974 33.9705 1.0645 27.1831C0.557737 26.9835 0.309409 26.4144 0.501719 25.9049L3.74009 17.324C3.92005 16.8472 4.43527 16.5836 4.92953 16.708C27.222 22.3165 42.9722 22.5411 64.6364 16.8379C65.1153 16.7118 65.6207 16.9513 65.8182 17.4055L69.5738 26.0387Z" fill="#4F9743"/>
<path d="M26.0329 0.406496C26.5439 0.182925 27.1431 0.429256 27.3549 0.945254C39.3749 30.2256 34.0721 51.6661 27.3209 68.9132C27.1224 69.4204 26.5538 69.6699 26.0438 69.4787L17.4562 66.2583C16.979 66.0793 16.7143 65.5647 16.8376 65.0702C22.3995 42.7659 22.591 27.0153 16.8424 5.36319C16.7153 4.88448 16.9537 4.37863 17.4075 4.18011L26.0329 0.406496Z" fill="#FBC000"/>
<path d="M0.412959 43.725C0.188998 43.2141 0.434873 42.6147 0.950709 42.4025C30.2219 30.3602 51.6664 35.6466 68.9187 42.3847C69.426 42.5828 69.676 43.1512 69.4851 43.6614L66.2713 52.2514C66.0927 52.7288 65.5782 52.9938 65.0836 52.8709C42.7752 47.3261 27.0244 47.1466 5.37665 52.9116C4.89805 53.0391 4.39202 52.8011 4.19315 52.3475L0.412959 43.725Z" fill="#4F9743"/>
<path d="M43.977 69.615C43.4675 69.8419 42.8667 69.5994 42.6516 69.0848C30.4442 39.8821 35.6095 18.408 42.25 1.11799C42.4453 0.609544 43.0123 0.356386 43.5235 0.544355L52.1316 3.70963C52.6099 3.88552 52.8778 4.39849 52.7577 4.89379C47.3389 27.2332 47.2484 42.9847 53.1355 64.5996C53.2657 65.0774 53.0306 65.5848 52.5781 65.7862L43.977 69.615Z" fill="#FBC000"/>
<path fill-rule="evenodd" clip-rule="evenodd" d="M34.8417 34.4467C44.943 34.5035 56.2401 32.5807 69.0397 27.3566C69.5561 27.1459 69.7963 26.5502 69.5738 26.0387L65.8182 17.4055C65.6207 16.9513 65.1196 16.7107 64.6406 16.8368C53.7925 19.6929 44.4273 21.0628 34.9813 21.0146L34.8417 34.4467Z" fill="#4F9743"/>
</svg>
