<svg width="260" height="260" viewBox="0 0 260 260" fill="none" xmlns="http://www.w3.org/2000/svg">
<g id="Icon">
<path id="banana TL" d="M259.109 98.2C259.555 99.2234 259.055 100.423 258.023 100.848C147.456 146.444 66.9832 125.837 2.39355 100.24C1.38034 99.839 0.885958 98.7014 1.27114 97.6819L14.4335 62.8428C14.7936 61.8897 15.8271 61.3636 16.8147 61.6138C100.901 82.9144 159.82 83.7711 241.513 62.0941C242.47 61.8402 243.483 62.3182 243.879 63.2259L259.109 98.2Z" fill="#6AB545"/>
<path id="banana L" d="M98.2874 0.811616C99.309 0.365127 100.508 0.86171 100.936 1.89124C146.814 112.244 126.353 192.674 100.864 257.247C100.464 258.26 99.3288 258.756 98.3093 258.374L63.4014 245.298C62.4464 244.94 61.9175 243.907 62.1663 242.918C83.3124 158.881 84.0465 100.026 62.1761 18.47C61.9194 17.5128 62.3959 16.4972 63.3041 16.1003L98.2874 0.811616Z" fill="#FABF00"/>
<path id="banana B" d="M0.837155 160.644C0.388579 159.622 0.884882 158.421 1.91555 157.992C112.352 112.081 192.883 132.458 257.546 157.87C258.56 158.269 259.058 159.405 258.675 160.425L245.613 195.302C245.255 196.256 244.224 196.785 243.235 196.538C159.088 175.477 100.167 174.789 18.5365 196.699C17.5803 196.956 16.5655 196.481 16.1676 195.574L0.837155 160.644Z" fill="#1F8CDB"/>
<path id="banana R" d="M161.754 258.997C160.735 259.45 159.533 258.961 159.098 257.934C112.514 147.877 132.458 67.3185 157.533 2.58295C157.926 1.56771 159.058 1.06434 160.08 1.43973L195.071 14.2923C196.028 14.6439 196.564 15.674 196.321 16.6645C175.715 100.835 175.358 159.693 197.751 241.108C198.014 242.063 197.544 243.082 196.638 243.485L161.754 258.997Z" fill="#DB1F1F"/>
<path id="banana TR" fill-rule="evenodd" clip-rule="evenodd" d="M129.412 127.806C167.353 128.019 209.836 120.722 258.038 100.842C259.07 100.417 259.555 99.2234 259.109 98.2L243.879 63.2259C243.483 62.3182 242.478 61.8379 241.521 62.0918C200.621 72.9452 165.429 78.1505 129.931 77.9699L129.412 127.806Z" fill="#6AB545"/>
</g>
</svg>
