<?xml version="1.0" standalone="no"?>
<!DOCTYPE svg PUBLIC "-//W3C//DTD SVG 20010904//EN"
 "http://www.w3.org/TR/2001/REC-SVG-20010904/DTD/svg10.dtd">
<svg version="1.0" xmlns="http://www.w3.org/2000/svg"
 width="700.000000pt" height="700.000000pt" viewBox="0 0 700.000000 700.000000"
 preserveAspectRatio="xMidYMid meet">
<metadata>
Created by potrace 1.14, written by Peter Selinger 2001-2017
</metadata>
<g transform="translate(0.000000,700.000000) scale(0.100000,-0.100000)"
fill="#000000" stroke="none">
<path d="M2299 6827 c-380 -167 -386 -169 -509 -222 -92 -40 -124 -67 -117
-100 3 -11 24 -92 46 -180 86 -333 159 -655 207 -920 13 -77 27 -151 30 -165
9 -52 34 -205 34 -213 0 -5 -3 -6 -7 -4 -5 3 -30 7 -58 11 -27 3 -59 8 -70 10
-11 2 -54 9 -95 16 -41 6 -91 15 -110 20 -19 5 -53 11 -75 15 -34 4 -97 16
-115 20 -3 1 -23 5 -45 9 -22 4 -83 17 -135 28 -52 11 -104 21 -115 24 -62 12
-97 20 -275 61 -107 25 -202 46 -210 48 -8 2 -62 15 -120 29 -119 29 -143 31
-158 13 -6 -7 -49 -114 -96 -238 -46 -123 -126 -332 -176 -464 -100 -261 -106
-282 -88 -306 14 -16 213 -95 513 -202 341 -122 605 -203 980 -302 33 -9 130
-31 215 -50 204 -46 235 -52 301 -65 l57 -11 1 -164 c0 -91 -2 -165 -5 -165
-5 0 -339 -67 -374 -75 -8 -2 -73 -18 -145 -35 -71 -17 -139 -34 -150 -36 -15
-3 -245 -68 -380 -107 -306 -89 -1007 -348 -1027 -380 -12 -19 -9 -44 11 -90
33 -72 383 -871 392 -894 18 -47 34 -46 264 12 119 30 226 57 238 60 12 2 123
27 247 55 124 28 241 53 260 56 19 3 41 7 49 10 8 2 30 7 50 10 20 3 52 9 71
14 70 17 371 63 376 57 3 -3 -4 -65 -16 -139 -12 -73 -24 -146 -26 -163 -3
-16 -9 -52 -15 -80 -5 -27 -12 -66 -15 -85 -6 -36 -87 -433 -122 -595 -11 -49
-43 -186 -71 -302 -39 -160 -49 -217 -42 -232 7 -13 123 -61 378 -156 203 -76
397 -149 433 -162 187 -70 176 -68 202 -51 43 29 294 730 423 1183 46 160 136
515 151 590 2 11 17 85 32 165 l29 145 158 3 c115 2 161 -1 166 -9 4 -7 10
-32 14 -57 4 -24 8 -51 10 -60 127 -620 272 -1110 507 -1707 92 -233 118 -285
143 -285 17 0 974 425 987 438 11 11 13 47 5 77 -42 148 -178 704 -201 819
-55 274 -97 493 -111 581 -2 17 -7 43 -11 59 l-6 28 68 -7 c38 -4 71 -8 75
-10 3 -2 28 -7 55 -10 27 -4 56 -8 64 -10 8 -2 33 -7 55 -10 23 -3 52 -8 65
-11 14 -2 50 -9 80 -15 44 -8 281 -54 376 -73 92 -19 346 -77 513 -117 112
-27 214 -49 226 -49 28 0 41 16 64 77 112 300 195 522 202 538 8 20 52 136 54
145 1 3 7 18 14 35 7 16 26 69 43 117 39 113 43 108 -132 176 -528 207 -1286
437 -1670 508 -23 4 -196 39 -247 50 -23 4 -23 7 -23 160 0 115 3 156 13 159
6 2 30 7 52 10 253 36 858 188 1225 309 337 110 770 273 802 303 10 9 18 25
18 35 0 11 -29 86 -64 166 -193 444 -273 626 -307 706 -42 97 -63 126 -89 126
-10 0 -132 -29 -271 -64 -216 -54 -342 -83 -689 -156 -78 -16 -311 -58 -420
-75 -58 -9 -118 -18 -133 -21 -26 -5 -27 -4 -23 23 3 15 8 48 11 73 3 25 10
70 15 100 5 30 12 69 14 85 22 138 87 482 122 640 2 11 8 43 14 70 8 45 22
107 104 458 26 113 25 131 -4 147 -9 5 -197 75 -416 155 -220 80 -406 148
-414 152 -8 3 -43 16 -77 28 -94 34 -94 34 -180 -195 -77 -203 -212 -599 -259
-755 -34 -115 -123 -434 -128 -460 -2 -11 -18 -76 -34 -145 -28 -114 -81 -362
-96 -452 l-7 -36 -159 0 -159 0 -6 26 c-3 15 -7 36 -9 47 -52 263 -108 504
-170 735 -96 354 -267 855 -402 1174 -35 83 -46 96 -79 95 -11 0 -176 -68
-366 -152z m1229 -3308 c3 -35 3 -35 -38 -36 l-40 -1 0 40 0 39 38 -3 c35 -3
37 -5 40 -39z"/>
</g>
</svg>
